<svg xmlns="http://www.w3.org/2000/svg" width="1280" height="340" viewBox="0 0 1280 340" role="img" aria-label="Yuji Yamane"><defs><linearGradient id="wash" x1="0" y1="0" x2="0" y2="1"><stop offset="0" stop-color="#16324D"/><stop offset="0.35" stop-color="#1E4568"/><stop offset="0.68" stop-color="#3A6B96"/><stop offset="0.88" stop-color="#8FB3CC"/><stop offset="1" stop-color="#C9DAE4"/></linearGradient><clipPath id="card"><rect x="1" y="1" width="1278" height="338" rx="8"/></clipPath></defs><g clip-path="url(#card)"><rect x="0" y="0" width="1280" height="340" fill="#FBF5E6"/><rect x="0" y="0" width="1280" height="211" fill="url(#wash)"/><rect x="0" y="211" width="1280" height="14" fill="#C9DAE4"/><circle cx="9" cy="225" r="8" fill="#E9F1F6"/><circle cx="27" cy="225" r="8" fill="#E9F1F6"/><circle cx="45" cy="225" r="8" fill="#E9F1F6"/><circle cx="63" cy="225" r="8" fill="#E9F1F6"/><circle cx="81" cy="225" r="8" fill="#E9F1F6"/><circle cx="99" cy="225" r="8" fill="#E9F1F6"/><circle cx="117" cy="225" r="8" fill="#E9F1F6"/><circle cx="135" cy="225" r="8" fill="#E9F1F6"/><circle cx="153" cy="225" r="8" fill="#E9F1F6"/><circle cx="171" cy="225" r="8" fill="#E9F1F6"/><circle cx="189" cy="225" r="8" fill="#E9F1F6"/><circle cx="207" cy="225" r="8" fill="#E9F1F6"/><circle cx="225" cy="225" r="8" fill="#E9F1F6"/><circle cx="243" cy="225" r="8" fill="#E9F1F6"/><circle cx="261" cy="225" r="8" fill="#E9F1F6"/><circle cx="279" cy="225" r="8" fill="#E9F1F6"/><circle cx="297" cy="225" r="8" fill="#E9F1F6"/><circle cx="315" cy="225" r="8" fill="#E9F1F6"/><circle cx="333" cy="225" r="8" fill="#E9F1F6"/><circle cx="351" cy="225" r="8" fill="#E9F1F6"/><circle cx="369" cy="225" r="8" fill="#E9F1F6"/><circle cx="387" cy="225" r="8" fill="#E9F1F6"/><circle cx="405" cy="225" r="8" fill="#E9F1F6"/><circle cx="423" cy="225" r="8" fill="#E9F1F6"/><circle cx="441" cy="225" r="8" fill="#E9F1F6"/><circle cx="459" cy="225" r="8" fill="#E9F1F6"/><circle cx="477" cy="225" r="8" fill="#E9F1F6"/><circle cx="495" cy="225" r="8" fill="#E9F1F6"/><circle cx="513" cy="225" r="8" fill="#E9F1F6"/><circle cx="531" cy="225" r="8" fill="#E9F1F6"/><circle cx="549" cy="225" r="8" fill="#E9F1F6"/><circle cx="567" cy="225" r="8" fill="#E9F1F6"/><circle cx="585" cy="225" r="8" fill="#E9F1F6"/><circle cx="603" cy="225" r="8" fill="#E9F1F6"/><circle cx="621" cy="225" r="8" fill="#E9F1F6"/><circle cx="639" cy="225" r="8" fill="#E9F1F6"/><circle cx="657" cy="225" r="8" fill="#E9F1F6"/><circle cx="675" cy="225" r="8" fill="#E9F1F6"/><circle cx="693" cy="225" r="8" fill="#E9F1F6"/><circle cx="711" cy="225" r="8" fill="#E9F1F6"/><circle cx="729" cy="225" r="8" fill="#E9F1F6"/><circle cx="747" cy="225" r="8" fill="#E9F1F6"/><circle cx="765" cy="225" r="8" fill="#E9F1F6"/><circle cx="783" cy="225" r="8" fill="#E9F1F6"/><circle cx="801" cy="225" r="8" fill="#E9F1F6"/><circle cx="819" cy="225" r="8" fill="#E9F1F6"/><circle cx="837" cy="225" r="8" fill="#E9F1F6"/><circle cx="855" cy="225" r="8" fill="#E9F1F6"/><circle cx="873" cy="225" r="8" fill="#E9F1F6"/><circle cx="891" cy="225" r="8" fill="#E9F1F6"/><circle cx="909" cy="225" r="8" fill="#E9F1F6"/><circle cx="927" cy="225" r="8" fill="#E9F1F6"/><circle cx="945" cy="225" r="8" fill="#E9F1F6"/><circle cx="963" cy="225" r="8" fill="#E9F1F6"/><circle cx="981" cy="225" r="8" fill="#E9F1F6"/><circle cx="999" cy="225" r="8" fill="#E9F1F6"/><circle cx="1017" cy="225" r="8" fill="#E9F1F6"/><circle cx="1035" cy="225" r="8" fill="#E9F1F6"/><circle cx="1053" cy="225" r="8" fill="#E9F1F6"/><circle cx="1071" cy="225" r="8" fill="#E9F1F6"/><circle cx="1089" cy="225" r="8" fill="#E9F1F6"/><circle cx="1107" cy="225" r="8" fill="#E9F1F6"/><circle cx="1125" cy="225" r="8" fill="#E9F1F6"/><circle cx="1143" cy="225" r="8" fill="#E9F1F6"/><circle cx="1161" cy="225" r="8" fill="#E9F1F6"/><circle cx="1179" cy="225" r="8" fill="#E9F1F6"/><circle cx="1197" cy="225" r="8" fill="#E9F1F6"/><circle cx="1215" cy="225" r="8" fill="#E9F1F6"/><circle cx="1233" cy="225" r="8" fill="#E9F1F6"/><circle cx="1251" cy="225" r="8" fill="#E9F1F6"/><circle cx="1269" cy="225" r="8" fill="#E9F1F6"/><circle cx="1287" cy="225" r="8" fill="#E9F1F6"/><rect x="0" y="233" width="1280" height="107" fill="#FBF5E6"/><g id="kicker" fill="#F4C86A" transform="translate(64.0 86.0) scale(0.015000 -0.015000)"><path transform="translate(0.0 0.0)" d="M80 0V698H345Q447 698 501.0 640.0Q555 582 555 482Q555 382 501.0 324.0Q447 266 345 266H211V0ZM211 373H318Q371 373 394.0 394.5Q417 416 417 463V501Q417 548 394.0 569.5Q371 591 318 591H211Z"/><path transform="translate(780.0 0.0)" d="M300 -12Q232 -12 182.0 12.5Q132 37 99.5 83.0Q67 129 51.5 196.0Q36 263 36 349Q36 434 51.5 501.5Q67 569 99.5 615.0Q132 661 182.0 685.5Q232 710 300 710Q436 710 500.0 615.0Q564 520 564 349Q564 178 500.0 83.0Q436 -12 300 -12ZM300 95Q335 95 359.0 108.5Q383 122 397.5 147.0Q412 172 418.5 208.5Q425 245 425 290V409Q425 499 397.5 551.0Q370 603 300 603Q230 603 202.5 551.0Q175 499 175 409V289Q175 199 202.5 147.0Q230 95 300 95Z"/><path transform="translate(1560.0 0.0)" d="M65 0 18 698H131L153 296L162 130H171L241 537H363L433 130H442L451 296L473 698H582L535 0H366L304 395H296L234 0Z"/><path transform="translate(2340.0 0.0)" d="M83 0V698H524V590H214V408H513V300H214V108H524V0Z"/><path transform="translate(3120.0 0.0)" d="M211 0H80V698H345Q447 698 501.0 640.0Q555 582 555 482Q555 405 519.5 352.5Q484 300 418 286L567 0H423L290 271H211ZM318 373Q371 373 394.0 394.5Q417 416 417 463V501Q417 548 394.0 569.5Q371 591 318 591H211V373Z"/><path transform="translate(4680.0 0.0)" d="M80 698H323Q422 698 475.5 648.5Q529 599 529 514Q529 454 499.5 418.0Q470 382 416 366V361Q479 346 515.5 306.5Q552 267 552 195Q552 151 537.5 115.5Q523 80 496.5 54.0Q470 28 432.5 14.0Q395 0 348 0H80ZM308 95Q363 95 390.5 115.5Q418 136 418 186V219Q418 268 390.5 288.5Q363 309 308 309H208V95ZM291 400Q344 400 369.5 419.0Q395 438 395 485V518Q395 565 369.5 584.0Q344 603 291 603H208V400Z"/><path transform="translate(5460.0 0.0)" d="M78 0V98H235V600H78V698H522V600H365V98H522V0Z"/><path transform="translate(7020.0 0.0)" d="M300 231 150 80 75 155 226 305 75 455 150 530 300 379 450 530 525 455 374 305 525 155 450 80Z"/><path transform="translate(8580.0 0.0)" d="M318 -12Q181 -12 115.5 82.0Q50 176 50 349Q50 521 115.5 615.5Q181 710 318 710Q370 710 409.5 696.0Q449 682 478.0 657.5Q507 633 526.0 598.5Q545 564 556 523L436 489Q429 513 420.0 534.0Q411 555 397.5 570.5Q384 586 364.0 594.5Q344 603 316 603Q248 603 218.5 551.0Q189 499 189 409V289Q189 199 218.5 147.0Q248 95 316 95Q344 95 364.0 103.5Q384 112 397.5 127.5Q411 143 420.0 164.0Q429 185 436 209L556 175Q545 134 526.0 99.5Q507 65 478.0 40.5Q449 16 409.5 2.0Q370 -12 318 -12Z"/><path transform="translate(9360.0 0.0)" d="M100 0V698H231V108H540V0Z"/><path transform="translate(10140.0 0.0)" d="M449 0 400 177H193L145 0H13L209 698H391L588 0ZM301 569H293L216 284H378Z"/><path transform="translate(10920.0 0.0)" d="M193 698V263Q193 224 195.5 193.0Q198 162 208.5 140.5Q219 119 240.5 107.0Q262 95 300 95Q338 95 359.5 107.0Q381 119 391.5 140.5Q402 162 404.5 193.0Q407 224 407 263V698H538V283Q538 209 529.0 154.0Q520 99 494.0 62.0Q468 25 421.5 6.5Q375 -12 300 -12Q225 -12 178.5 6.5Q132 25 106.0 62.0Q80 99 71.0 154.0Q62 209 62 283V698Z"/><path transform="translate(11700.0 0.0)" d="M73 698H290Q426 698 492.5 608.0Q559 518 559 349Q559 179 492.5 89.5Q426 0 290 0H73ZM281 105Q353 105 387.5 152.0Q422 199 422 289V410Q422 499 387.5 546.0Q353 593 281 593H202V105Z"/><path transform="translate(12480.0 0.0)" d="M83 0V698H524V590H214V408H513V300H214V108H524V0Z"/><path transform="translate(14040.0 0.0)" d="M318 -12Q181 -12 115.5 82.0Q50 176 50 349Q50 521 115.5 615.5Q181 710 318 710Q370 710 409.5 696.0Q449 682 478.0 657.5Q507 633 526.0 598.5Q545 564 556 523L436 489Q429 513 420.0 534.0Q411 555 397.5 570.5Q384 586 364.0 594.5Q344 603 316 603Q248 603 218.5 551.0Q189 499 189 409V289Q189 199 218.5 147.0Q248 95 316 95Q344 95 364.0 103.5Q384 112 397.5 127.5Q411 143 420.0 164.0Q429 185 436 209L556 175Q545 134 526.0 99.5Q507 65 478.0 40.5Q449 16 409.5 2.0Q370 -12 318 -12Z"/><path transform="translate(14820.0 0.0)" d="M300 -12Q232 -12 182.0 12.5Q132 37 99.5 83.0Q67 129 51.5 196.0Q36 263 36 349Q36 434 51.5 501.5Q67 569 99.5 615.0Q132 661 182.0 685.5Q232 710 300 710Q436 710 500.0 615.0Q564 520 564 349Q564 178 500.0 83.0Q436 -12 300 -12ZM300 95Q335 95 359.0 108.5Q383 122 397.5 147.0Q412 172 418.5 208.5Q425 245 425 290V409Q425 499 397.5 551.0Q370 603 300 603Q230 603 202.5 551.0Q175 499 175 409V289Q175 199 202.5 147.0Q230 95 300 95Z"/><path transform="translate(15600.0 0.0)" d="M73 698H290Q426 698 492.5 608.0Q559 518 559 349Q559 179 492.5 89.5Q426 0 290 0H73ZM281 105Q353 105 387.5 152.0Q422 199 422 289V410Q422 499 387.5 546.0Q353 593 281 593H202V105Z"/><path transform="translate(16380.0 0.0)" d="M83 0V698H524V590H214V408H513V300H214V108H524V0Z"/></g><g id="title" fill="#FBF5E6" transform="translate(64.0 152.0) scale(0.056000 -0.056000)"><path transform="translate(0.0 0.0)" d="M227 0Q220 0 220 13Q220 26 227 26H240Q280 26 302.0 42.0Q324 58 325 100V230Q325 243 319 256Q279 338 221.0 455.0Q163 572 131 634Q107 678 86.0 693.0Q65 708 43 708H29Q22 708 22 720Q22 733 29 733H326Q333 733 333 720Q333 708 326 708H312Q280 708 261.0 697.0Q242 686 242 664Q242 652 250 633Q271 587 316.0 496.5Q361 406 400 329Q406 317 414 317Q422 317 428 329L571 617Q580 635 580 650Q580 677 555.5 692.5Q531 708 506 708H492Q485 708 485 720Q485 733 492 733H746Q751 733 752.5 730.0Q754 727 754 720Q754 708 746 708H734Q706 708 674.0 684.5Q642 661 617 618Q596 581 445 284Q439 271 439 258V100Q439 57 462.0 41.5Q485 26 524 26H537Q545 26 545 13Q545 0 537 0Z"/><path transform="translate(761.0 0.0)" d="M591 24Q591 15 584 13Q577 11 434 -8H429Q412 -8 412 11V40Q412 57 401 57Q394 57 387 49Q329 -11 256 -11Q173 -11 134.5 34.0Q96 79 95 143Q93 219 93 379Q93 410 77.0 419.5Q61 429 25 431Q16 432 16 445Q16 447 22.5 452.5Q29 458 35 459L171 489L177 490Q194 490 194 470Q193 435 193 302Q193 173 194 152Q200 39 286 39Q319 39 349.0 57.5Q379 76 403 112Q410 125 410 138L407 378Q407 410 391.5 419.0Q376 428 339 431Q330 432 330 447Q330 453 336 455L427 475L485 488L491 489Q499 489 503.5 483.5Q508 478 508 469L509 85Q509 44 555 38Q561 37 573 37Q584 37 587.5 33.5Q591 30 591 24Z"/><path transform="translate(1388.0 0.0)" d="M65 674Q65 703 85.0 723.0Q105 743 134 743Q163 743 183.0 723.0Q203 703 203 674Q203 646 183.0 625.5Q163 605 134 605Q105 605 85.0 625.0Q65 645 65 674ZM-100 -167Q-100 -150 -89.5 -139.0Q-79 -128 -65 -128Q-46 -128 -25 -144Q-17 -151 5 -175Q16 -187 24.5 -193.0Q33 -199 42 -199Q69 -199 80.0 -156.0Q91 -113 91 -23L89 378Q89 409 73.5 418.5Q58 428 21 431Q12 431 12 444Q12 453 18 455Q40 461 82.5 470.5Q125 480 168 489L174 490Q182 490 186.5 484.5Q191 479 191 470V-16Q191 -97 159.5 -146.5Q128 -196 84.0 -216.5Q40 -237 0 -237Q-38 -237 -69.0 -216.0Q-100 -195 -100 -167Z"/><path transform="translate(1659.0 0.0)" d="M92 674Q92 703 112.0 723.0Q132 743 161 743Q190 743 210.0 723.0Q230 703 230 674Q230 645 210.0 625.0Q190 605 161 605Q133 605 112.5 625.5Q92 646 92 674ZM44 0Q36 0 36 13Q36 26 44 26H55Q85 26 101.5 34.5Q118 43 118 72L116 378Q116 400 108.0 410.5Q100 421 87.0 425.0Q74 429 49 431Q43 431 41.5 434.5Q40 438 40 444Q40 448 41.0 451.0Q42 454 45 455Q66 460 110.0 470.0Q154 480 195 488L201 489Q209 489 213.5 483.5Q218 478 218 469V72Q218 43 235.0 34.5Q252 26 281 26H293Q300 26 300 13Q300 0 293 0Z"/><path transform="translate(2246.0 0.0)" d="M227 0Q220 0 220 13Q220 26 227 26H240Q280 26 302.0 42.0Q324 58 325 100V230Q325 243 319 256Q279 338 221.0 455.0Q163 572 131 634Q107 678 86.0 693.0Q65 708 43 708H29Q22 708 22 720Q22 733 29 733H326Q333 733 333 720Q333 708 326 708H312Q280 708 261.0 697.0Q242 686 242 664Q242 652 250 633Q271 587 316.0 496.5Q361 406 400 329Q406 317 414 317Q422 317 428 329L571 617Q580 635 580 650Q580 677 555.5 692.5Q531 708 506 708H492Q485 708 485 720Q485 733 492 733H746Q751 733 752.5 730.0Q754 727 754 720Q754 708 746 708H734Q706 708 674.0 684.5Q642 661 617 618Q596 581 445 284Q439 271 439 258V100Q439 57 462.0 41.5Q485 26 524 26H537Q545 26 545 13Q545 0 537 0Z"/><path transform="translate(3007.0 0.0)" d="M557 78 556 73Q542 33 510.5 10.5Q479 -12 446 -12Q390 -12 367 36Q361 48 354 48Q349 48 341 42Q305 14 262.5 0.0Q220 -14 179 -14Q118 -14 82.5 14.5Q47 43 47 92Q47 131 66.5 159.5Q86 188 125 210Q148 223 177.5 231.0Q207 239 265 253Q311 263 335 269Q353 274 353 293V318Q353 372 349.0 396.5Q345 421 331 438Q310 463 268 463Q237 463 218.0 446.0Q199 429 186 385Q178 355 162.0 339.5Q146 324 125 324Q104 324 87.0 337.5Q70 351 70 373Q70 392 84.5 419.5Q99 447 143.5 470.0Q188 493 268 493Q323 493 364.0 477.5Q405 462 426 437Q443 416 448.5 393.0Q454 370 454 336Q454 273 453 236L452 116Q452 47 492 47Q522 47 542 81Q545 86 549 86Q552 86 554.5 84.0Q557 82 557 78ZM341 78Q352 88 352 105Q351 110 351 121L352 218Q352 230 345.5 235.0Q339 240 328 237Q240 214 197.5 182.5Q155 151 155 103Q155 75 175.5 56.5Q196 38 235 38Q261 38 289.0 48.0Q317 58 341 78Z"/><path transform="translate(3570.0 0.0)" d="M919 25Q926 25 926 12Q926 0 919 0H676Q669 0 669 12Q669 25 676 25H687Q716 25 731.5 34.0Q747 43 747 71L748 221Q748 285 746 327Q743 380 723.5 412.0Q704 444 655 444Q623 444 593.0 425.5Q563 407 539 373Q532 364 532 351Q533 347 533 340V261Q533 181 531 71Q531 43 547.0 34.0Q563 25 591 25H603Q610 25 610 12Q610 0 603 0H360Q352 0 352 12Q352 25 360 25H372Q400 25 416.0 34.0Q432 43 432 71L433 218Q433 285 431 327Q428 380 408.0 412.0Q388 444 339 444Q306 444 275.5 425.0Q245 406 221 370Q214 357 214 344L213 71Q213 43 229.0 34.0Q245 25 274 25H285Q293 25 293 12Q293 0 285 0H42Q35 0 35 12Q35 25 42 25H54Q82 25 98.0 34.0Q114 43 114 71L112 378Q111 409 95.5 418.5Q80 428 44 431Q35 431 35 446Q35 453 40 454Q47 457 98.5 468.5Q150 480 191 488L197 489Q205 489 209.5 483.5Q214 478 214 469V442Q214 434 216.5 429.5Q219 425 223 425Q230 425 238 434Q294 493 368 493Q421 493 457.0 472.0Q493 451 513 416Q519 406 525 406Q532 406 537 414Q598 493 684 493Q763 493 804.0 448.5Q845 404 848 340Q849 321 849 261Q849 181 846 71Q846 43 862.5 34.0Q879 25 907 25Z"/><path transform="translate(4527.0 0.0)" d="M557 78 556 73Q542 33 510.5 10.5Q479 -12 446 -12Q390 -12 367 36Q361 48 354 48Q349 48 341 42Q305 14 262.5 0.0Q220 -14 179 -14Q118 -14 82.5 14.5Q47 43 47 92Q47 131 66.5 159.5Q86 188 125 210Q148 223 177.5 231.0Q207 239 265 253Q311 263 335 269Q353 274 353 293V318Q353 372 349.0 396.5Q345 421 331 438Q310 463 268 463Q237 463 218.0 446.0Q199 429 186 385Q178 355 162.0 339.5Q146 324 125 324Q104 324 87.0 337.5Q70 351 70 373Q70 392 84.5 419.5Q99 447 143.5 470.0Q188 493 268 493Q323 493 364.0 477.5Q405 462 426 437Q443 416 448.5 393.0Q454 370 454 336Q454 273 453 236L452 116Q452 47 492 47Q522 47 542 81Q545 86 549 86Q552 86 554.5 84.0Q557 82 557 78ZM341 78Q352 88 352 105Q351 110 351 121L352 218Q352 230 345.5 235.0Q339 240 328 237Q240 214 197.5 182.5Q155 151 155 103Q155 75 175.5 56.5Q196 38 235 38Q261 38 289.0 48.0Q317 58 341 78Z"/><path transform="translate(5090.0 0.0)" d="M603 25Q610 25 610 12Q610 0 603 0H359Q352 0 352 12Q352 25 359 25H372Q400 25 415.5 34.0Q431 43 431 71V251L430 327Q426 445 339 445Q306 445 275.5 426.0Q245 407 221 371Q214 358 214 345L213 71Q213 43 229.0 34.0Q245 25 274 25H285Q292 25 292 12Q292 0 285 0H42Q34 0 34 12Q34 25 42 25H54Q82 25 98.0 34.0Q114 43 114 71L112 378Q112 409 96.5 418.5Q81 428 44 431Q35 432 35 447Q43 456 52 458Q72 463 97.5 468.5Q123 474 147 479Q174 484 191 488L197 489Q205 489 209.5 483.5Q214 478 214 469V442Q214 434 216.5 429.5Q219 425 223 425Q230 425 238 434Q294 493 367 493Q447 493 488.0 448.5Q529 404 532 341Q533 320 533 256Q533 176 531 71Q531 43 546.5 34.0Q562 25 591 25Z"/><path transform="translate(5731.0 0.0)" d="M498 119Q498 116 495 111Q474 62 423.5 24.0Q373 -14 298 -14Q227 -14 169.5 18.0Q112 50 79.0 107.0Q46 164 46 234Q46 296 73.5 356.0Q101 416 155.0 455.0Q209 494 285 494Q366 494 423.5 442.5Q481 391 497 303V299Q497 280 477 280L177 278Q156 278 156 260V242Q156 151 200.5 93.5Q245 36 320 36Q416 36 475 125Q479 131 484 131Q488 131 492 127Q498 123 498 119ZM165 338 164 332Q164 324 169.5 319.0Q175 314 184 314L365 316Q386 316 386 331Q385 395 354.5 429.0Q324 463 280 463Q244 463 211.5 433.0Q179 403 165 338Z"/></g><g id="tagline" fill="#C9DAE4" transform="translate(64.0 190.0) scale(0.021000 -0.021000)"><path transform="translate(0.0 0.0)" d="M14 0 287 700H368L641 0H538L471 179H182L115 0ZM213 265H440L328 569Z"/><path transform="translate(655.0 0.0)" d="M77 0V700H168V0Z"/><path transform="translate(900.0 0.0)" d="M65 209V292H361V209Z"/><path transform="translate(1326.0 0.0)" d="M14 0 287 700H368L641 0H538L471 179H182L115 0ZM213 265H440L328 569Z"/><path transform="translate(1981.0 0.0)" d="M229 -11Q153 -11 106.0 37.5Q59 86 59 178V480H148V196Q148 134 176.0 102.5Q204 71 248 71Q299 71 331.5 104.5Q364 138 364 195V480H453V0H372L368 62Q347 32 311.5 10.5Q276 -11 229 -11Z"/><path transform="translate(2502.0 0.0)" d="M260 -207Q120 -207 51 -97L123 -48Q168 -124 260 -124Q325 -124 358.0 -82.5Q391 -41 391 46V99Q367 69 332.5 52.0Q298 35 256 35Q194 35 145.0 62.0Q96 89 68.5 140.5Q41 192 41 264Q41 337 68.5 387.5Q96 438 145.0 465.0Q194 492 256 492Q300 492 336.5 473.5Q373 455 398 422L401 480H480V46Q480 -78 423.5 -142.5Q367 -207 260 -207ZM262 114Q321 114 359.0 155.0Q397 196 397 264Q397 332 359.0 372.0Q321 412 262 412Q204 412 167.5 372.0Q131 332 131 264Q131 196 167.5 155.0Q204 114 262 114Z"/><path transform="translate(3050.0 0.0)" d="M67 0V480H148L153 414Q169 448 203.5 470.0Q238 492 283 492Q335 492 371.0 468.0Q407 444 423 400Q441 440 477.5 466.0Q514 492 566 492Q639 492 682.0 444.0Q725 396 725 304V0H634V286Q634 349 610.5 379.5Q587 410 546 410Q497 410 468.5 374.0Q440 338 440 282V0H351V286Q351 349 327.0 379.5Q303 410 262 410Q213 410 185.0 373.5Q157 337 157 283V0Z"/><path transform="translate(3842.0 0.0)" d="M271 -11Q203 -11 151.0 18.0Q99 47 70.0 103.5Q41 160 41 240Q41 317 70.0 373.5Q99 430 149.5 461.0Q200 492 266 492Q332 492 378.5 459.5Q425 427 449.5 373.0Q474 319 474 255V231H129Q131 151 169.5 109.5Q208 68 272 68Q323 68 356.5 93.0Q390 118 413 168L481 123Q447 53 394.5 21.0Q342 -11 271 -11ZM134 303H386Q378 355 346.0 387.0Q314 419 265 419Q213 419 179.0 389.5Q145 360 134 303Z"/><path transform="translate(4364.0 0.0)" d="M67 0V480H148L153 418Q174 448 209.5 470.0Q245 492 291 492Q367 492 414.5 443.5Q462 395 462 303V0H373V284Q373 347 345.0 378.5Q317 410 272 410Q221 410 189.0 376.5Q157 343 157 287V0Z"/><path transform="translate(4894.0 0.0)" d="M259 -11Q191 -11 156.0 15.5Q121 42 121 117V402H24V480H121V652H210V480H349V402H210V136Q210 97 227.5 83.5Q245 70 280 70Q298 70 317.5 75.5Q337 81 349 87V4Q333 -3 308.0 -7.0Q283 -11 259 -11Z"/><path transform="translate(5275.0 0.0)" d="M271 -11Q203 -11 151.0 18.0Q99 47 70.0 103.5Q41 160 41 240Q41 317 70.0 373.5Q99 430 149.5 461.0Q200 492 266 492Q332 492 378.5 459.5Q425 427 449.5 373.0Q474 319 474 255V231H129Q131 151 169.5 109.5Q208 68 272 68Q323 68 356.5 93.0Q390 118 413 168L481 123Q447 53 394.5 21.0Q342 -11 271 -11ZM134 303H386Q378 355 346.0 387.0Q314 419 265 419Q213 419 179.0 389.5Q145 360 134 303Z"/><path transform="translate(5797.0 0.0)" d="M269 -11Q203 -11 151.5 19.5Q100 50 70.5 106.5Q41 163 41 240Q41 318 70.5 374.5Q100 431 151.5 461.5Q203 492 269 492Q313 492 349.5 473.0Q386 454 411 419V717H500V0H421L418 69Q393 32 354.5 10.5Q316 -11 269 -11ZM272 71Q333 71 372.5 116.0Q412 161 412 240Q412 320 372.5 365.0Q333 410 272 410Q211 410 171.0 365.0Q131 320 131 240Q131 161 171.0 116.0Q211 71 272 71Z"/><path transform="translate(6644.0 0.0)" d="M77 0V700H354Q447 700 499.5 654.5Q552 609 552 523Q552 464 525.0 424.0Q498 384 454 368Q511 355 547.5 305.5Q584 256 584 188Q584 94 528.5 47.0Q473 0 367 0ZM168 86H356Q424 86 455.0 113.5Q486 141 486 199Q486 255 449.0 286.0Q412 317 355 317H168ZM168 404H344Q397 404 425.0 433.0Q453 462 453 510Q453 614 338 614H168Z"/><path transform="translate(7278.0 0.0)" d="M77 0V700H168V0Z"/><path transform="translate(7803.0 0.0)" d="M319 -13Q235 -13 164.5 20.0Q94 53 50 129L125 175Q158 127 205.0 101.0Q252 75 322 75Q392 75 431.0 103.0Q470 131 470 185Q470 217 456.0 240.5Q442 264 400.0 283.0Q358 302 273 319Q80 361 80 516Q80 576 109.0 621.0Q138 666 190.0 691.5Q242 717 311 717Q395 717 455.5 682.0Q516 647 556 596L486 539Q454 574 413.0 601.0Q372 628 310 628Q252 628 213.5 600.5Q175 573 175 520Q175 492 187.5 469.5Q200 447 234.0 430.0Q268 413 333 399Q457 373 511.5 321.0Q566 269 566 186Q566 122 534.5 77.5Q503 33 447.5 10.0Q392 -13 319 -13Z"/><path transform="translate(8420.0 0.0)" d="M269 -11Q203 -11 151.5 20.5Q100 52 70.5 109.0Q41 166 41 241Q41 316 70.5 372.5Q100 429 151.5 460.5Q203 492 269 492Q335 492 386.5 460.5Q438 429 467.5 372.5Q497 316 497 241Q497 166 467.5 109.0Q438 52 386.5 20.5Q335 -11 269 -11ZM269 71Q330 71 368.5 116.5Q407 162 407 241Q407 320 368.5 365.0Q330 410 269 410Q208 410 169.5 365.0Q131 320 131 241Q131 162 169.5 116.5Q208 71 269 71Z"/><path transform="translate(8958.0 0.0)" d="M67 0V717H157V0Z"/><path transform="translate(9182.0 0.0)" d="M229 -11Q153 -11 106.0 37.5Q59 86 59 178V480H148V196Q148 134 176.0 102.5Q204 71 248 71Q299 71 331.5 104.5Q364 138 364 195V480H453V0H372L368 62Q347 32 311.5 10.5Q276 -11 229 -11Z"/><path transform="translate(9703.0 0.0)" d="M259 -11Q191 -11 156.0 15.5Q121 42 121 117V402H24V480H121V652H210V480H349V402H210V136Q210 97 227.5 83.5Q245 70 280 70Q298 70 317.5 75.5Q337 81 349 87V4Q333 -3 308.0 -7.0Q283 -11 259 -11Z"/><path transform="translate(10084.0 0.0)" d="M83 0V480H172V0ZM127 570Q102 570 84.5 587.5Q67 605 67 630Q67 655 84.5 672.5Q102 690 127 690Q151 690 168.5 672.5Q186 655 186 630Q186 605 168.5 587.5Q151 570 127 570Z"/><path transform="translate(10338.0 0.0)" d="M269 -11Q203 -11 151.5 20.5Q100 52 70.5 109.0Q41 166 41 241Q41 316 70.5 372.5Q100 429 151.5 460.5Q203 492 269 492Q335 492 386.5 460.5Q438 429 467.5 372.5Q497 316 497 241Q497 166 467.5 109.0Q438 52 386.5 20.5Q335 -11 269 -11ZM269 71Q330 71 368.5 116.5Q407 162 407 241Q407 320 368.5 365.0Q330 410 269 410Q208 410 169.5 365.0Q131 320 131 241Q131 162 169.5 116.5Q208 71 269 71Z"/><path transform="translate(10876.0 0.0)" d="M67 0V480H148L153 418Q174 448 209.5 470.0Q245 492 291 492Q367 492 414.5 443.5Q462 395 462 303V0H373V284Q373 347 345.0 378.5Q317 410 272 410Q221 410 189.0 376.5Q157 343 157 287V0Z"/><path transform="translate(11406.0 0.0)" d="M236 -10Q175 -10 122.0 12.0Q69 34 32 80L91 138Q145 69 240 69Q284 69 310.0 85.0Q336 101 336 138Q336 168 309.0 182.5Q282 197 213 210Q168 219 132.5 234.0Q97 249 76.0 277.5Q55 306 55 352Q55 396 79.0 427.5Q103 459 142.5 476.0Q182 493 230 493Q347 493 408 418L355 357Q333 386 301.0 399.5Q269 413 231 413Q188 413 167.0 395.5Q146 378 146 354Q146 326 170.0 313.0Q194 300 257 286Q307 275 345.5 257.0Q384 239 405.5 210.0Q427 181 427 135Q427 66 374.5 28.0Q322 -10 236 -10Z"/><path transform="translate(12146.0 0.0)" d="M77 0V700H168V86H543V0Z"/><path transform="translate(12712.0 0.0)" d="M271 -11Q203 -11 151.0 18.0Q99 47 70.0 103.5Q41 160 41 240Q41 317 70.0 373.5Q99 430 149.5 461.0Q200 492 266 492Q332 492 378.5 459.5Q425 427 449.5 373.0Q474 319 474 255V231H129Q131 151 169.5 109.5Q208 68 272 68Q323 68 356.5 93.0Q390 118 413 168L481 123Q447 53 394.5 21.0Q342 -11 271 -11ZM134 303H386Q378 355 346.0 387.0Q314 419 265 419Q213 419 179.0 389.5Q145 360 134 303Z"/><path transform="translate(13234.0 0.0)" d="M211 -8Q138 -10 90.5 25.5Q43 61 43 128Q43 177 74.5 213.0Q106 249 155.5 269.5Q205 290 258 290Q289 292 315.0 284.5Q341 277 360 263V323Q360 379 336.5 396.0Q313 413 264 413Q222 413 174.5 398.0Q127 383 94 360L52 430Q93 456 149.5 474.0Q206 492 264 492Q356 492 401.0 455.5Q446 419 446 323V82Q446 63 456.0 60.0Q466 57 501 65V7Q488 2 468.0 -3.0Q448 -8 427 -8Q395 -8 381.0 4.0Q367 16 362 47Q335 20 294.0 7.0Q253 -6 211 -8ZM212 71Q254 72 288.5 83.5Q323 95 343.0 116.5Q363 138 361 168Q359 196 332.5 208.0Q306 220 265 218Q228 217 197.0 204.5Q166 192 147.5 172.0Q129 152 129 127Q130 99 152.0 84.5Q174 70 212 71Z"/><path transform="translate(13769.0 0.0)" d="M269 -11Q203 -11 151.5 19.5Q100 50 70.5 106.5Q41 163 41 240Q41 318 70.5 374.5Q100 431 151.5 461.5Q203 492 269 492Q313 492 349.5 473.0Q386 454 411 419V717H500V0H421L418 69Q393 32 354.5 10.5Q316 -11 269 -11ZM272 71Q333 71 372.5 116.0Q412 161 412 240Q412 320 372.5 365.0Q333 410 272 410Q211 410 171.0 365.0Q131 320 131 240Q131 161 171.0 116.0Q211 71 272 71Z"/><path transform="translate(14616.0 0.0)" d="M0 358V402H1000V358Z"/><path transform="translate(15896.0 0.0)" d="M319 -13Q235 -13 164.5 20.0Q94 53 50 129L125 175Q158 127 205.0 101.0Q252 75 322 75Q392 75 431.0 103.0Q470 131 470 185Q470 217 456.0 240.5Q442 264 400.0 283.0Q358 302 273 319Q80 361 80 516Q80 576 109.0 621.0Q138 666 190.0 691.5Q242 717 311 717Q395 717 455.5 682.0Q516 647 556 596L486 539Q454 574 413.0 601.0Q372 628 310 628Q252 628 213.5 600.5Q175 573 175 520Q175 492 187.5 469.5Q200 447 234.0 430.0Q268 413 333 399Q457 373 511.5 321.0Q566 269 566 186Q566 122 534.5 77.5Q503 33 447.5 10.0Q392 -13 319 -13Z"/><path transform="translate(16513.0 0.0)" d="M111 -207Q68 -207 34 -199V-116Q49 -120 67.5 -122.5Q86 -125 103 -125Q141 -125 156.0 -110.0Q171 -95 186 -57L208 1L18 480H112L247 110L377 480H469L263 -84Q241 -145 207.5 -176.0Q174 -207 111 -207Z"/><path transform="translate(17005.0 0.0)" d="M269 -11Q203 -11 151.5 19.5Q100 50 70.5 106.5Q41 163 41 240Q41 318 70.5 374.5Q100 431 151.5 461.5Q203 492 269 492Q313 492 349.5 473.0Q386 454 411 419V717H500V0H421L418 69Q393 32 354.5 10.5Q316 -11 269 -11ZM272 71Q333 71 372.5 116.0Q412 161 412 240Q412 320 372.5 365.0Q333 410 272 410Q211 410 171.0 365.0Q131 320 131 240Q131 161 171.0 116.0Q211 71 272 71Z"/><path transform="translate(17572.0 0.0)" d="M67 0V480H148L153 418Q174 448 209.5 470.0Q245 492 291 492Q367 492 414.5 443.5Q462 395 462 303V0H373V284Q373 347 345.0 378.5Q317 410 272 410Q221 410 189.0 376.5Q157 343 157 287V0Z"/><path transform="translate(18102.0 0.0)" d="M271 -11Q203 -11 151.0 18.0Q99 47 70.0 103.5Q41 160 41 240Q41 317 70.0 373.5Q99 430 149.5 461.0Q200 492 266 492Q332 492 378.5 459.5Q425 427 449.5 373.0Q474 319 474 255V231H129Q131 151 169.5 109.5Q208 68 272 68Q323 68 356.5 93.0Q390 118 413 168L481 123Q447 53 394.5 21.0Q342 -11 271 -11ZM134 303H386Q378 355 346.0 387.0Q314 419 265 419Q213 419 179.0 389.5Q145 360 134 303Z"/><path transform="translate(18624.0 0.0)" d="M111 -207Q68 -207 34 -199V-116Q49 -120 67.5 -122.5Q86 -125 103 -125Q141 -125 156.0 -110.0Q171 -95 186 -57L208 1L18 480H112L247 110L377 480H469L263 -84Q241 -145 207.5 -176.0Q174 -207 111 -207Z"/><path transform="translate(19116.0 0.0)" d="M100 -158 74 -111Q121 -99 148.0 -69.5Q175 -40 175 -5Q175 11 170 23Q163 9 149.0 0.0Q135 -9 119 -9Q94 -9 76.5 7.0Q59 23 59 51Q59 79 79.0 94.5Q99 110 127 111Q171 113 201.0 79.5Q231 46 231 -7Q231 -62 195.0 -100.0Q159 -138 100 -158Z"/><path transform="translate(19685.0 0.0)" d="M14 0 287 700H368L641 0H538L471 179H182L115 0ZM213 265H440L328 569Z"/><path transform="translate(20340.0 0.0)" d="M229 -11Q153 -11 106.0 37.5Q59 86 59 178V480H148V196Q148 134 176.0 102.5Q204 71 248 71Q299 71 331.5 104.5Q364 138 364 195V480H453V0H372L368 62Q347 32 311.5 10.5Q276 -11 229 -11Z"/><path transform="translate(20861.0 0.0)" d="M236 -10Q175 -10 122.0 12.0Q69 34 32 80L91 138Q145 69 240 69Q284 69 310.0 85.0Q336 101 336 138Q336 168 309.0 182.5Q282 197 213 210Q168 219 132.5 234.0Q97 249 76.0 277.5Q55 306 55 352Q55 396 79.0 427.5Q103 459 142.5 476.0Q182 493 230 493Q347 493 408 418L355 357Q333 386 301.0 399.5Q269 413 231 413Q188 413 167.0 395.5Q146 378 146 354Q146 326 170.0 313.0Q194 300 257 286Q307 275 345.5 257.0Q384 239 405.5 210.0Q427 181 427 135Q427 66 374.5 28.0Q322 -10 236 -10Z"/><path transform="translate(21321.0 0.0)" d="M259 -11Q191 -11 156.0 15.5Q121 42 121 117V402H24V480H121V652H210V480H349V402H210V136Q210 97 227.5 83.5Q245 70 280 70Q298 70 317.5 75.5Q337 81 349 87V4Q333 -3 308.0 -7.0Q283 -11 259 -11Z"/><path transform="translate(21702.0 0.0)" d="M67 0V480H149L154 405Q174 444 214.5 468.0Q255 492 302 492Q318 492 332.0 490.0Q346 488 356 486V399Q345 402 328.0 404.0Q311 406 291 406Q235 406 196.0 369.5Q157 333 157 274V0Z"/><path transform="translate(22081.0 0.0)" d="M211 -8Q138 -10 90.5 25.5Q43 61 43 128Q43 177 74.5 213.0Q106 249 155.5 269.5Q205 290 258 290Q289 292 315.0 284.5Q341 277 360 263V323Q360 379 336.5 396.0Q313 413 264 413Q222 413 174.5 398.0Q127 383 94 360L52 430Q93 456 149.5 474.0Q206 492 264 492Q356 492 401.0 455.5Q446 419 446 323V82Q446 63 456.0 60.0Q466 57 501 65V7Q488 2 468.0 -3.0Q448 -8 427 -8Q395 -8 381.0 4.0Q367 16 362 47Q335 20 294.0 7.0Q253 -6 211 -8ZM212 71Q254 72 288.5 83.5Q323 95 343.0 116.5Q363 138 361 168Q359 196 332.5 208.0Q306 220 265 218Q228 217 197.0 204.5Q166 192 147.5 172.0Q129 152 129 127Q130 99 152.0 84.5Q174 70 212 71Z"/><path transform="translate(22616.0 0.0)" d="M67 0V717H157V0Z"/><path transform="translate(22840.0 0.0)" d="M83 0V480H172V0ZM127 570Q102 570 84.5 587.5Q67 605 67 630Q67 655 84.5 672.5Q102 690 127 690Q151 690 168.5 672.5Q186 655 186 630Q186 605 168.5 587.5Q151 570 127 570Z"/><path transform="translate(23094.0 0.0)" d="M211 -8Q138 -10 90.5 25.5Q43 61 43 128Q43 177 74.5 213.0Q106 249 155.5 269.5Q205 290 258 290Q289 292 315.0 284.5Q341 277 360 263V323Q360 379 336.5 396.0Q313 413 264 413Q222 413 174.5 398.0Q127 383 94 360L52 430Q93 456 149.5 474.0Q206 492 264 492Q356 492 401.0 455.5Q446 419 446 323V82Q446 63 456.0 60.0Q466 57 501 65V7Q488 2 468.0 -3.0Q448 -8 427 -8Q395 -8 381.0 4.0Q367 16 362 47Q335 20 294.0 7.0Q253 -6 211 -8ZM212 71Q254 72 288.5 83.5Q323 95 343.0 116.5Q363 138 361 168Q359 196 332.5 208.0Q306 220 265 218Q228 217 197.0 204.5Q166 192 147.5 172.0Q129 152 129 127Q130 99 152.0 84.5Q174 70 212 71Z"/></g><g id="hanko"><rect x="1164" y="44" width="52" height="96" rx="3" fill="#B93A2B"/><g fill="#FBF5E6" transform="translate(1173.0 84.0) scale(0.034000 -0.034000)"><path transform="translate(0.0 0.0)" d="M766 773 783 796Q788 803 794.0 811.5Q800 820 806.0 826.5Q812 833 816 833Q824 833 859.0 805.0Q894 777 910 758Q915 753 915 747Q915 741 909 736Q901 731 891 731H229Q219 731 213.5 725.5Q208 720 208 710V36Q208 26 213.5 20.5Q219 15 229 15H762Q778 15 787 28L806 53Q812 60 818.5 69.0Q825 78 831.0 85.0Q837 92 841 92Q849 92 887.0 62.0Q925 32 940 13Q945 6 945 1Q945 -4 940 -9Q932 -14 920 -14H229Q219 -14 213.5 -19.5Q208 -25 208 -35V-58Q208 -62 198.0 -69.0Q188 -76 170.5 -81.0Q153 -86 131 -86Q119 -86 111.5 -80.0Q104 -74 104 -66Q108 -7 111.0 48.5Q114 104 115 194V605Q115 703 106 781V785Q106 801 119 801Q125 801 129 799L209 765Q220 760 234 760H741Q757 760 766 773ZM752 462 767 482Q771 488 778.0 497.5Q785 507 789.5 511.5Q794 516 798 516Q806 516 839.0 490.5Q872 465 887 447Q892 442 892 436Q892 430 886 425Q878 420 867 420H693Q683 420 677.5 414.5Q672 409 672 399V308Q675 174 678 106V101Q678 87 668 81Q642 63 600 63Q589 63 582.0 69.0Q575 75 575 83Q582 181 584 301V399Q584 409 578.5 414.5Q573 420 563 420H441Q421 420 419 400Q415 302 383.5 218.0Q352 134 270 72Q253 60 248 67Q247 68 247 71Q247 78 254 88Q303 161 318.5 247.5Q334 334 334 443V541Q334 579 331 615V617Q331 635 344 635Q350 635 354 633L428 605Q436 602 442 602Q445 602 455 604Q523 621 590.0 644.0Q657 667 704 689Q710 692 715 692Q724 692 734 684Q772 649 787.0 633.5Q802 618 802 612Q802 605 786 607L772 609H765Q760 609 746 607Q685 594 604.0 585.0Q523 576 441 572Q420 571 420 550V470Q420 460 425.5 454.5Q431 449 441 449H727Q743 449 752 462Z"/><path transform="translate(0.0 -1000.0)" d="M296 625 308 645Q312 651 317.5 660.5Q323 670 327.0 674.5Q331 679 335 679Q342 679 369.0 653.5Q396 628 408 610Q412 602 412 598Q412 592 406 587Q399 582 388 582H291Q281 582 275.5 576.5Q270 571 270 561V447Q270 438 274.0 433.0Q278 428 285 428Q288 428 294 430L371 460Q380 464 386.0 464.0Q392 464 393 462V461Q393 455 380 445L283 374Q270 365 270 349V32Q270 -3 263.5 -24.5Q257 -46 236.5 -60.5Q216 -75 176 -82H172Q155 -82 152 -63Q149 -35 136 -19Q120 0 85 8Q66 13 66 20Q66 25 81 25Q99 25 135 23L164 21Q175 21 179.0 25.0Q183 29 183 39V276Q183 294 171 294Q166 294 158 289L117 263Q106 257 104 250L102 246Q99 238 92 238Q82 238 75 252L48 320Q46 326 46 329Q46 342 61 346L166 383Q183 389 183 407V561Q183 571 177.5 576.5Q172 582 162 582H141Q117 581 90 574Q87 573 82 573Q70 573 62 586L59 592Q56 598 56 603Q56 609 61.0 612.5Q66 616 76 615Q98 613 140 611H162Q172 611 177.5 616.5Q183 622 183 632V644Q183 744 174 823V827Q174 843 189 843Q194 843 197 842Q295 818 295 804Q295 799 287 794L284 792Q270 783 270 767V632Q270 611 279 611Q288 611 296 625ZM806 671 822 694Q826 700 833.5 710.5Q841 721 845.5 726.0Q850 731 854 731Q862 731 895.0 703.5Q928 676 943 657Q947 652 947 646Q947 640 941 635Q933 630 923 630H708Q698 630 692.5 624.5Q687 619 687 609V472Q687 462 692.5 456.5Q698 451 708 451H747Q762 451 772 462L788 479Q793 484 804.0 495.5Q815 507 821 507Q828 507 858.5 480.0Q889 453 903 433Q907 428 907 422Q907 414 899 410Q896 408 887 406Q869 403 864 388Q808 250 719 150Q713 143 713 136Q713 127 722 121Q819 55 947 15Q967 9 965 4Q964 1 959.0 -1.0Q954 -3 947 -6Q908 -19 886 -64Q878 -77 868 -77Q864 -77 858 -74Q739 -18 658 64Q651 72 642 72Q634 72 628 67Q505 -30 318 -79Q313 -81 305 -81Q297 -81 296 -77V-75Q296 -72 300.5 -68.5Q305 -65 313 -62Q474 6 586 118Q593 125 593 133Q593 140 588 148Q513 259 477 404Q473 422 454 422H452Q448 422 442 420Q432 416 429 416Q420 416 414 427L411 432Q408 438 408 444Q408 450 413.0 453.5Q418 457 427 456Q461 453 530 451H575Q585 451 590.5 456.5Q596 462 596 472V609Q596 619 590.5 624.5Q585 630 575 630H528Q478 629 422 619H416Q402 619 396 632L392 639Q389 645 389 650Q389 665 409 663Q443 660 512 658H575Q596 658 596 679Q594 767 588 817V819Q588 836 604 836Q609 836 612 835Q668 821 690.5 812.5Q713 804 713 798Q713 793 705 788L701 785Q687 775 687 760V679Q687 669 692.5 663.5Q698 658 708 658H781Q797 658 806 671ZM758 407Q758 414 753.0 418.0Q748 422 739 422H517Q508 422 503.0 418.0Q498 414 498 407Q498 404 500 398Q542 290 627 200Q634 193 642 193Q650 193 657 202Q721 290 756 398Q758 404 758 407Z"/></g></g><g id="install-bar"><rect x="64" y="255" width="626" height="52" rx="6" fill="#16324D"/><g fill="#F4C86A" transform="translate(86.0 288.0) scale(0.019000 -0.019000)"><path transform="translate(0.0 0.0)" d="M85 118 416 301V309L85 491V598L515 357V253L85 12Z"/></g><g fill="#E9F1F6" transform="translate(114.8 288.0) scale(0.019000 -0.019000)"><path transform="translate(0.0 0.0)" d="M83 -138 420 760H517L180 -138Z"/><path transform="translate(600.0 0.0)" d="M79 516H188V428H194Q217 475 255.0 501.5Q293 528 350 528Q441 528 495.0 460.0Q549 392 549 258Q549 124 495.0 56.0Q441 -12 350 -12Q293 -12 255.0 14.5Q217 41 194 88H188V-200H79ZM305 77Q367 77 400.5 115.0Q434 153 434 216V300Q434 363 400.5 401.0Q367 439 305 439Q281 439 260.0 433.0Q239 427 223.0 415.0Q207 403 197.5 385.5Q188 368 188 344V172Q188 148 197.5 130.5Q207 113 223.0 101.0Q239 89 260.0 83.0Q281 77 305 77Z"/><path transform="translate(1200.0 0.0)" d="M75 88H246V652H75V740H355V88H526V0H75Z"/><path transform="translate(1800.0 0.0)" d="M407 88H402Q394 68 381.5 49.5Q369 31 351.0 17.5Q333 4 309.0 -4.0Q285 -12 253 -12Q175 -12 127.0 39.0Q79 90 79 184V516H188V200Q188 77 295 77Q316 77 336.0 82.5Q356 88 372.0 99.0Q388 110 397.5 126.5Q407 143 407 166V516H516V0H407Z"/><path transform="translate(2400.0 0.0)" d="M570 -56Q570 -136 503.0 -174.0Q436 -212 299 -212Q232 -212 186.5 -203.5Q141 -195 112.5 -179.0Q84 -163 71.5 -140.0Q59 -117 59 -88Q59 -46 82.5 -22.5Q106 1 149 12V22Q123 32 107.5 50.0Q92 68 92 97Q92 135 118.0 154.5Q144 174 185 184V189Q138 211 112.0 251.0Q86 291 86 347Q86 388 101.0 421.5Q116 455 143.5 478.5Q171 502 209.5 515.0Q248 528 296 528Q350 528 393 511V528Q393 558 410.0 578.0Q427 598 462 598H556V512H436V488Q470 465 488.0 429.5Q506 394 506 347Q506 306 491.0 272.5Q476 239 448.5 215.5Q421 192 382.5 179.5Q344 167 296 167Q262 167 232 173Q214 168 196.0 156.0Q178 144 178 123Q178 99 201.0 93.0Q224 87 258 87H374Q478 87 524.0 47.5Q570 8 570 -56ZM468 -63Q468 -37 447.0 -21.5Q426 -6 371 -6H192Q154 -24 154 -64Q154 -93 178.5 -114.0Q203 -135 260 -135H341Q403 -135 435.5 -116.5Q468 -98 468 -63ZM296 242Q349 242 374.0 267.0Q399 292 399 334V361Q399 403 374.0 428.0Q349 453 296 453Q243 453 218.0 428.0Q193 403 193 361V334Q193 292 218.0 267.0Q243 242 296 242Z"/><path transform="translate(3000.0 0.0)" d="M332 610Q290 610 273.5 627.0Q257 644 257 669V690Q257 715 273.5 732.0Q290 749 331 749Q373 749 389.5 732.0Q406 715 406 690V669Q406 644 389.5 627.0Q373 610 332 610ZM101 88H277V428H101V516H386V88H551V0H101Z"/><path transform="translate(3600.0 0.0)" d="M84 0V516H193V428H198Q206 448 218.5 466.5Q231 485 249.0 498.5Q267 512 291.0 520.0Q315 528 347 528Q425 528 473.0 477.0Q521 426 521 332V0H412V316Q412 439 305 439Q284 439 264.0 433.5Q244 428 228.0 417.0Q212 406 202.5 389.0Q193 372 193 350V0Z"/><path transform="translate(4800.0 0.0)" d="M44 0V516H137V449H142Q154 482 176.5 505.0Q199 528 241 528Q282 528 304.5 505.5Q327 483 333 444H337Q351 479 376.0 503.5Q401 528 448 528Q508 528 531.5 486.0Q555 444 555 363V0H462V349Q462 403 449.0 423.5Q436 444 407 444Q381 444 363.5 426.5Q346 409 346 374V0H253V349Q253 403 240.5 423.5Q228 444 199 444Q172 444 154.5 426.5Q137 409 137 374V0Z"/><path transform="translate(5400.0 0.0)" d="M492 0Q445 0 421.5 24.0Q398 48 393 87H388Q373 40 333.5 14.0Q294 -12 233 -12Q154 -12 107.0 29.5Q60 71 60 144Q60 219 115.5 258.5Q171 298 286 298H385V338Q385 443 274 443Q224 443 193.0 423.5Q162 404 141 372L76 425Q98 467 150.0 497.5Q202 528 284 528Q382 528 438.0 481.0Q494 434 494 345V86H559V0ZM264 68Q317 68 351.0 92.0Q385 116 385 154V229H288Q170 229 170 158V138Q170 103 195.0 85.5Q220 68 264 68Z"/><path transform="translate(6000.0 0.0)" d="M76 88H213V428H76V516H322V379H328Q335 406 348.0 431.0Q361 456 381.0 474.5Q401 493 430.0 504.5Q459 516 498 516H560V412H458Q398 412 360.0 376.5Q322 341 322 281V88H509V0H76Z"/><path transform="translate(6600.0 0.0)" d="M88 740H197V293H202L283 376L428 516H557L348 313L580 0H449L269 251L197 184V0H88Z"/><path transform="translate(7200.0 0.0)" d="M311 -12Q252 -12 205.0 7.0Q158 26 126.0 61.0Q94 96 77.0 145.5Q60 195 60 257Q60 319 77.5 369.0Q95 419 126.5 454.5Q158 490 203.0 509.0Q248 528 303 528Q357 528 401.0 509.5Q445 491 476.0 457.0Q507 423 523.5 376.0Q540 329 540 272V231H170V214Q170 153 208.0 114.5Q246 76 313 76Q363 76 398.5 97.5Q434 119 456 155L524 95Q498 50 444.5 19.0Q391 -12 311 -12ZM303 445Q274 445 249.5 435.0Q225 425 207.5 406.5Q190 388 180.0 363.0Q170 338 170 308V301H429V311Q429 372 394.5 408.5Q360 445 303 445Z"/><path transform="translate(7800.0 0.0)" d="M331 0Q263 0 231.0 36.5Q199 73 199 131V428H40V516H153Q182 516 194.0 527.5Q206 539 206 569V698H308V516H528V428H308V88H528V0Z"/><path transform="translate(8400.0 0.0)" d="M79 516H188V428H194Q217 475 255.0 501.5Q293 528 350 528Q441 528 495.0 460.0Q549 392 549 258Q549 124 495.0 56.0Q441 -12 350 -12Q293 -12 255.0 14.5Q217 41 194 88H188V-200H79ZM305 77Q367 77 400.5 115.0Q434 153 434 216V300Q434 363 400.5 401.0Q367 439 305 439Q281 439 260.0 433.0Q239 427 223.0 415.0Q207 403 197.5 385.5Q188 368 188 344V172Q188 148 197.5 130.5Q207 113 223.0 101.0Q239 89 260.0 83.0Q281 77 305 77Z"/><path transform="translate(9000.0 0.0)" d="M75 88H246V652H75V740H355V88H526V0H75Z"/><path transform="translate(9600.0 0.0)" d="M492 0Q445 0 421.5 24.0Q398 48 393 87H388Q373 40 333.5 14.0Q294 -12 233 -12Q154 -12 107.0 29.5Q60 71 60 144Q60 219 115.5 258.5Q171 298 286 298H385V338Q385 443 274 443Q224 443 193.0 423.5Q162 404 141 372L76 425Q98 467 150.0 497.5Q202 528 284 528Q382 528 438.0 481.0Q494 434 494 345V86H559V0ZM264 68Q317 68 351.0 92.0Q385 116 385 154V229H288Q170 229 170 158V138Q170 103 195.0 85.5Q220 68 264 68Z"/><path transform="translate(10200.0 0.0)" d="M319 -12Q261 -12 215.5 7.0Q170 26 138.5 61.0Q107 96 90.5 146.0Q74 196 74 258Q74 320 90.5 370.0Q107 420 138.5 455.0Q170 490 215.5 509.0Q261 528 318 528Q398 528 446.5 494.0Q495 460 519 406L434 360Q420 396 391.5 417.0Q363 438 318 438Q256 438 222.0 400.5Q188 363 188 301V215Q188 154 222.0 116.0Q256 78 320 78Q368 78 398.5 100.0Q429 122 447 160L527 111Q502 57 451.0 22.5Q400 -12 319 -12Z"/><path transform="translate(10800.0 0.0)" d="M311 -12Q252 -12 205.0 7.0Q158 26 126.0 61.0Q94 96 77.0 145.5Q60 195 60 257Q60 319 77.5 369.0Q95 419 126.5 454.5Q158 490 203.0 509.0Q248 528 303 528Q357 528 401.0 509.5Q445 491 476.0 457.0Q507 423 523.5 376.0Q540 329 540 272V231H170V214Q170 153 208.0 114.5Q246 76 313 76Q363 76 398.5 97.5Q434 119 456 155L524 95Q498 50 444.5 19.0Q391 -12 311 -12ZM303 445Q274 445 249.5 435.0Q225 425 207.5 406.5Q190 388 180.0 363.0Q170 338 170 308V301H429V311Q429 372 394.5 408.5Q360 445 303 445Z"/><path transform="translate(12000.0 0.0)" d="M492 0Q445 0 421.5 24.0Q398 48 393 87H388Q373 40 333.5 14.0Q294 -12 233 -12Q154 -12 107.0 29.5Q60 71 60 144Q60 219 115.5 258.5Q171 298 286 298H385V338Q385 443 274 443Q224 443 193.0 423.5Q162 404 141 372L76 425Q98 467 150.0 497.5Q202 528 284 528Q382 528 438.0 481.0Q494 434 494 345V86H559V0ZM264 68Q317 68 351.0 92.0Q385 116 385 154V229H288Q170 229 170 158V138Q170 103 195.0 85.5Q220 68 264 68Z"/><path transform="translate(12600.0 0.0)" d="M412 88H406Q383 41 345.0 14.5Q307 -12 250 -12Q159 -12 105.0 56.0Q51 124 51 258Q51 392 105.0 460.0Q159 528 250 528Q307 528 345.0 501.5Q383 475 406 428H412V740H521V0H412ZM295 77Q319 77 340.0 83.0Q361 89 377.0 101.0Q393 113 402.5 130.5Q412 148 412 172V344Q412 368 402.5 385.5Q393 403 377.0 415.0Q361 427 340.0 433.0Q319 439 295 439Q233 439 199.5 401.0Q166 363 166 300V216Q166 153 199.5 115.0Q233 77 295 77Z"/><path transform="translate(13200.0 0.0)" d="M412 88H406Q383 41 345.0 14.5Q307 -12 250 -12Q159 -12 105.0 56.0Q51 124 51 258Q51 392 105.0 460.0Q159 528 250 528Q307 528 345.0 501.5Q383 475 406 428H412V740H521V0H412ZM295 77Q319 77 340.0 83.0Q361 89 377.0 101.0Q393 113 402.5 130.5Q412 148 412 172V344Q412 368 402.5 385.5Q393 403 377.0 415.0Q361 427 340.0 433.0Q319 439 295 439Q233 439 199.5 401.0Q166 363 166 300V216Q166 153 199.5 115.0Q233 77 295 77Z"/><path transform="translate(14400.0 0.0)" d="M451 516H561L311 -100Q291 -150 258.5 -175.0Q226 -200 165 -200H78V-112H200L247 7L39 516H153L235 300L299 123H305L369 300Z"/><path transform="translate(15000.0 0.0)" d="M407 88H402Q394 68 381.5 49.5Q369 31 351.0 17.5Q333 4 309.0 -4.0Q285 -12 253 -12Q175 -12 127.0 39.0Q79 90 79 184V516H188V200Q188 77 295 77Q316 77 336.0 82.5Q356 88 372.0 99.0Q388 110 397.5 126.5Q407 143 407 166V516H516V0H407Z"/><path transform="translate(15600.0 0.0)" d="M98 -112H326V428H92V516H435V-69Q435 -127 402.5 -163.5Q370 -200 302 -200H98ZM381 610Q339 610 322.5 627.0Q306 644 306 669V690Q306 715 322.5 732.0Q339 749 380 749Q422 749 438.5 732.0Q455 715 455 690V669Q455 644 438.5 627.0Q422 610 381 610Z"/><path transform="translate(16200.0 0.0)" d="M332 610Q290 610 273.5 627.0Q257 644 257 669V690Q257 715 273.5 732.0Q290 749 331 749Q373 749 389.5 732.0Q406 715 406 690V669Q406 644 389.5 627.0Q373 610 332 610ZM101 88H277V428H101V516H386V88H551V0H101Z"/><path transform="translate(16800.0 0.0)" d="M451 516H561L311 -100Q291 -150 258.5 -175.0Q226 -200 165 -200H78V-112H200L247 7L39 516H153L235 300L299 123H305L369 300Z"/><path transform="translate(17400.0 0.0)" d="M492 0Q445 0 421.5 24.0Q398 48 393 87H388Q373 40 333.5 14.0Q294 -12 233 -12Q154 -12 107.0 29.5Q60 71 60 144Q60 219 115.5 258.5Q171 298 286 298H385V338Q385 443 274 443Q224 443 193.0 423.5Q162 404 141 372L76 425Q98 467 150.0 497.5Q202 528 284 528Q382 528 438.0 481.0Q494 434 494 345V86H559V0ZM264 68Q317 68 351.0 92.0Q385 116 385 154V229H288Q170 229 170 158V138Q170 103 195.0 85.5Q220 68 264 68Z"/><path transform="translate(18000.0 0.0)" d="M44 0V516H137V449H142Q154 482 176.5 505.0Q199 528 241 528Q282 528 304.5 505.5Q327 483 333 444H337Q351 479 376.0 503.5Q401 528 448 528Q508 528 531.5 486.0Q555 444 555 363V0H462V349Q462 403 449.0 423.5Q436 444 407 444Q381 444 363.5 426.5Q346 409 346 374V0H253V349Q253 403 240.5 423.5Q228 444 199 444Q172 444 154.5 426.5Q137 409 137 374V0Z"/><path transform="translate(18600.0 0.0)" d="M492 0Q445 0 421.5 24.0Q398 48 393 87H388Q373 40 333.5 14.0Q294 -12 233 -12Q154 -12 107.0 29.5Q60 71 60 144Q60 219 115.5 258.5Q171 298 286 298H385V338Q385 443 274 443Q224 443 193.0 423.5Q162 404 141 372L76 425Q98 467 150.0 497.5Q202 528 284 528Q382 528 438.0 481.0Q494 434 494 345V86H559V0ZM264 68Q317 68 351.0 92.0Q385 116 385 154V229H288Q170 229 170 158V138Q170 103 195.0 85.5Q220 68 264 68Z"/><path transform="translate(19200.0 0.0)" d="M84 0V516H193V428H198Q206 448 218.5 466.5Q231 485 249.0 498.5Q267 512 291.0 520.0Q315 528 347 528Q425 528 473.0 477.0Q521 426 521 332V0H412V316Q412 439 305 439Q284 439 264.0 433.5Q244 428 228.0 417.0Q212 406 202.5 389.0Q193 372 193 350V0Z"/><path transform="translate(19800.0 0.0)" d="M311 -12Q252 -12 205.0 7.0Q158 26 126.0 61.0Q94 96 77.0 145.5Q60 195 60 257Q60 319 77.5 369.0Q95 419 126.5 454.5Q158 490 203.0 509.0Q248 528 303 528Q357 528 401.0 509.5Q445 491 476.0 457.0Q507 423 523.5 376.0Q540 329 540 272V231H170V214Q170 153 208.0 114.5Q246 76 313 76Q363 76 398.5 97.5Q434 119 456 155L524 95Q498 50 444.5 19.0Q391 -12 311 -12ZM303 445Q274 445 249.5 435.0Q225 425 207.5 406.5Q190 388 180.0 363.0Q170 338 170 308V301H429V311Q429 372 394.5 408.5Q360 445 303 445Z"/><path transform="translate(20400.0 0.0)" d="M83 -138 420 760H517L180 -138Z"/><path transform="translate(21000.0 0.0)" d="M79 516H188V428H194Q217 475 255.0 501.5Q293 528 350 528Q441 528 495.0 460.0Q549 392 549 258Q549 124 495.0 56.0Q441 -12 350 -12Q293 -12 255.0 14.5Q217 41 194 88H188V-200H79ZM305 77Q367 77 400.5 115.0Q434 153 434 216V300Q434 363 400.5 401.0Q367 439 305 439Q281 439 260.0 433.0Q239 427 223.0 415.0Q207 403 197.5 385.5Q188 368 188 344V172Q188 148 197.5 130.5Q207 113 223.0 101.0Q239 89 260.0 83.0Q281 77 305 77Z"/><path transform="translate(21600.0 0.0)" d="M79 740H188V428H194Q217 475 255.0 501.5Q293 528 350 528Q441 528 495.0 460.0Q549 392 549 258Q549 124 495.0 56.0Q441 -12 350 -12Q293 -12 255.0 14.5Q217 41 194 88H188V0H79ZM305 77Q367 77 400.5 115.0Q434 153 434 216V300Q434 363 400.5 401.0Q367 439 305 439Q281 439 260.0 433.0Q239 427 223.0 415.0Q207 403 197.5 385.5Q188 368 188 344V172Q188 148 197.5 130.5Q207 113 223.0 101.0Q239 89 260.0 83.0Q281 77 305 77Z"/><path transform="translate(22200.0 0.0)" d="M332 610Q290 610 273.5 627.0Q257 644 257 669V690Q257 715 273.5 732.0Q290 749 331 749Q373 749 389.5 732.0Q406 715 406 690V669Q406 644 389.5 627.0Q373 610 332 610ZM101 88H277V428H101V516H386V88H551V0H101Z"/><path transform="translate(22800.0 0.0)" d="M149 250V359H451V250Z"/><path transform="translate(23400.0 0.0)" d="M492 0Q445 0 421.5 24.0Q398 48 393 87H388Q373 40 333.5 14.0Q294 -12 233 -12Q154 -12 107.0 29.5Q60 71 60 144Q60 219 115.5 258.5Q171 298 286 298H385V338Q385 443 274 443Q224 443 193.0 423.5Q162 404 141 372L76 425Q98 467 150.0 497.5Q202 528 284 528Q382 528 438.0 481.0Q494 434 494 345V86H559V0ZM264 68Q317 68 351.0 92.0Q385 116 385 154V229H288Q170 229 170 158V138Q170 103 195.0 85.5Q220 68 264 68Z"/><path transform="translate(24000.0 0.0)" d="M332 610Q290 610 273.5 627.0Q257 644 257 669V690Q257 715 273.5 732.0Q290 749 331 749Q373 749 389.5 732.0Q406 715 406 690V669Q406 644 389.5 627.0Q373 610 332 610ZM101 88H277V428H101V516H386V88H551V0H101Z"/><path transform="translate(24600.0 0.0)" d="M149 250V359H451V250Z"/><path transform="translate(25200.0 0.0)" d="M301 -12Q217 -12 156.5 15.0Q96 42 59 87L126 147Q160 110 202.5 90.5Q245 71 303 71Q356 71 388.5 89.0Q421 107 421 145Q421 161 415.0 172.0Q409 183 398.0 190.0Q387 197 372.5 201.0Q358 205 342 207L260 220Q230 224 199.0 233.0Q168 242 143.5 258.5Q119 275 103.5 301.0Q88 327 88 367Q88 446 148.5 487.0Q209 528 308 528Q380 528 432.5 506.5Q485 485 520 447L459 383Q439 406 402.0 425.5Q365 445 304 445Q195 445 195 376Q195 343 218.5 330.5Q242 318 274 314L356 301Q387 296 417.5 288.0Q448 280 472.5 263.5Q497 247 512.5 221.0Q528 195 528 155Q528 77 467.5 32.5Q407 -12 301 -12Z"/><path transform="translate(25800.0 0.0)" d="M88 740H197V293H202L283 376L428 516H557L348 313L580 0H449L269 251L197 184V0H88Z"/><path transform="translate(26400.0 0.0)" d="M332 610Q290 610 273.5 627.0Q257 644 257 669V690Q257 715 273.5 732.0Q290 749 331 749Q373 749 389.5 732.0Q406 715 406 690V669Q406 644 389.5 627.0Q373 610 332 610ZM101 88H277V428H101V516H386V88H551V0H101Z"/><path transform="translate(27000.0 0.0)" d="M75 88H246V652H75V740H355V88H526V0H75Z"/><path transform="translate(27600.0 0.0)" d="M75 88H246V652H75V740H355V88H526V0H75Z"/><path transform="translate(28200.0 0.0)" d="M301 -12Q217 -12 156.5 15.0Q96 42 59 87L126 147Q160 110 202.5 90.5Q245 71 303 71Q356 71 388.5 89.0Q421 107 421 145Q421 161 415.0 172.0Q409 183 398.0 190.0Q387 197 372.5 201.0Q358 205 342 207L260 220Q230 224 199.0 233.0Q168 242 143.5 258.5Q119 275 103.5 301.0Q88 327 88 367Q88 446 148.5 487.0Q209 528 308 528Q380 528 432.5 506.5Q485 485 520 447L459 383Q439 406 402.0 425.5Q365 445 304 445Q195 445 195 376Q195 343 218.5 330.5Q242 318 274 314L356 301Q387 296 417.5 288.0Q448 280 472.5 263.5Q497 247 512.5 221.0Q528 195 528 155Q528 77 467.5 32.5Q407 -12 301 -12Z"/></g></g></g><rect x="1" y="1" width="1278" height="338" rx="8" fill="none" stroke="#DFD2B2" stroke-width="1"/></svg>